<?xml version="1.0" encoding="UTF-8" standalone="no"?>
<svg
   xmlns:osb="http://www.openswatchbook.org/uri/2009/osb"
   xmlns:dc="http://purl.org/dc/elements/1.1/"
   xmlns:cc="http://creativecommons.org/ns#"
   xmlns:rdf="http://www.w3.org/1999/02/22-rdf-syntax-ns#"
   xmlns:svg="http://www.w3.org/2000/svg"
   xmlns="http://www.w3.org/2000/svg"
   xmlns:sodipodi="http://sodipodi.sourceforge.net/DTD/sodipodi-0.dtd"
   xmlns:inkscape="http://www.inkscape.org/namespaces/inkscape"
   version="1.1"
   width="1700"
   height="1000"
   id="svg2"
   inkscape:version="0.91 r13725"
   sodipodi:docname="AMOS_Logo.svg">
  <metadata
     id="metadata36">
    <rdf:RDF>
      <cc:Work
         rdf:about="">
        <dc:format>image/svg+xml</dc:format>
        <dc:type
           rdf:resource="http://purl.org/dc/dcmitype/StillImage" />
        <dc:title />
      </cc:Work>
    </rdf:RDF>
  </metadata>
  <defs
     id="defs34">
    <linearGradient
       id="linearGradient8548"
       osb:paint="solid">
      <stop
         style="stop-color:#000000;stop-opacity:1;"
         offset="0"
         id="stop8550" />
    </linearGradient>
    <linearGradient
       id="linearGradient8542"
       osb:paint="solid">
      <stop
         style="stop-color:#000000;stop-opacity:1;"
         offset="0"
         id="stop8544" />
    </linearGradient>
    <linearGradient
       id="linearGradient8536"
       osb:paint="solid">
      <stop
         style="stop-color:#000000;stop-opacity:1;"
         offset="0"
         id="stop8538" />
    </linearGradient>
    <linearGradient
       id="linearGradient8532"
       osb:paint="solid">
      <stop
         style="stop-color:#222222;stop-opacity:1;"
         offset="0"
         id="stop8534" />
    </linearGradient>
    <linearGradient
       id="linearGradient8528"
       osb:paint="solid">
      <stop
         style="stop-color:#222222;stop-opacity:1;"
         offset="0"
         id="stop8530" />
    </linearGradient>
    <linearGradient
       id="linearGradient8500"
       osb:paint="solid">
      <stop
         style="stop-color:#222222;stop-opacity:1;"
         offset="0"
         id="stop8502" />
    </linearGradient>
    <linearGradient
       id="linearGradient8352"
       osb:paint="solid">
      <stop
         style="stop-color:#000000;stop-opacity:1;"
         offset="0"
         id="stop8354" />
    </linearGradient>
    <linearGradient
       id="linearGradient8314"
       osb:paint="solid">
      <stop
         style="stop-color:#000000;stop-opacity:0.7753846;"
         offset="0"
         id="stop8316" />
    </linearGradient>
    <linearGradient
       id="linearGradient8296"
       osb:paint="solid">
      <stop
         style="stop-color:#000000;stop-opacity:0.84615386;"
         offset="0"
         id="stop8298" />
    </linearGradient>
  </defs>
  <sodipodi:namedview
     pagecolor="#ffffff"
     bordercolor="#666666"
     borderopacity="1"
     objecttolerance="10"
     gridtolerance="10"
     guidetolerance="10"
     inkscape:pageopacity="0"
     inkscape:pageshadow="2"
     inkscape:window-width="1920"
     inkscape:window-height="1035"
     id="namedview32"
     showgrid="true"
     inkscape:zoom="0.65555556"
     inkscape:cx="169.28563"
     inkscape:cy="478.13875"
     inkscape:window-x="0"
     inkscape:window-y="0"
     inkscape:window-maximized="1"
     inkscape:current-layer="layer1"
     showborder="true"
     inkscape:snap-center="true"
     inkscape:snap-object-midpoints="false"
     inkscape:snap-nodes="false">
    <inkscape:grid
       type="xygrid"
       id="grid8113" />
  </sodipodi:namedview>
  <g
     inkscape:groupmode="layer"
     id="layer1"
     inkscape:label="white outlines"
     style="display:inline">
    <g
       id="g8149"
       transform="translate(143.44409,120.06813)"
       style="display:inline;fill:#ffffff;fill-opacity:1;stroke:#ffffff;stroke-width:40;stroke-miterlimit:4;stroke-dasharray:none;stroke-opacity:1">
      <path
         style="fill:#ffffff;fill-opacity:1;stroke:#ffffff;stroke-width:40;stroke-miterlimit:4;stroke-dasharray:none;stroke-opacity:1"
         d="m 697.13477,-61.9375 c -5.17737,-0.131423 -11.20903,1.994985 -17.66407,7.103516 -15.4573,-7.061635 -31.35154,6.484751 -34.02734,8.208984 -5.4158,-1.98656 -11.46672,-2.819787 -22.82422,6.378906 -12.4546,-2.318011 -20.63647,4.422683 -27.66797,13.654297 -16.27,-1.901608 -19.25693,9.486215 -25.92383,17.201172 -15.9298,3.830187 -15.308,11.6310316 -20.33398,18.0566406 C 532.35612,14.507936 532.05669,23.864866 529.44141,35.15625 l -8.16211,4.804688 c -2.70095,5.106234 -4.67245,10.459796 -6.07227,15.888671 -7.65875,-15.85238 -23.21325,-39.859688 -47.40234,-50.4140621 l -9.37696,1.3300781 c -9.08215,-7.20068 -15.149,-14.33145 -31.5664,-8.71875 -7.93507,-1.89302 -12.30922,-8.379366 -27.1543,-1.4472656 -6.57687,-1.23293 -12.90717,-4.6902282 -19.74023,-3.6425782 -3.57922,0.54877 -7.28737,2.3470701 -11.25391,6.34375005 -11.25222,-2.83762005 -21.85083,-3.00817375 -30.14648,6.56640625 -14.61492,-0.11587 -18.82874,4.3056245 -21.82618,9.2343745 -3.1672,0.31912 -24.03891,-0.370483 -31.72656,14.785157 -23.94735,0.0804 -29.37741,17.666626 -19.03125,32.191406 -3.91291,8.05068 -8.01074,16.033875 4.9961,28.890625 -3.02402,8.41048 0.49437,16.70614 11.15625,25.9668 -1.12368,11.44218 4.70556,18.70904 14.19335,23.77148 0.22043,15.44406 16.91521,22.40761 21.9629,24.99805 2.87162,8.66522 7.62448,16.59388 26.02539,19.05859 4.55275,12.8804 15.54938,13.86237 26.26757,15.37695 -31.88159,24.11807 -58.10869,53.93799 -50.07421,118.29102 l -3.9336,9.57617 c -36.42859,28.71382 -62.46461,109.91784 0.48828,165.68555 5.9963,19.12401 13.7696,32.43845 21.06055,47.33398 15.70152,61.68542 71.96814,84.61583 86.28906,86.39454 22.25439,13.03489 45.73811,25.11505 76.34571,31.85351 31.1444,25.17106 62.44498,32.40009 92.58398,28.71289 0.4418,-0.0541 0.89258,-0.10336 1.33398,-0.16211 30.1435,-3.64969 58.7986,-18.17537 82.9961,-50.08203 28.0978,-13.88343 47.99651,-31.24394 66.47461,-49.23633 13.4762,-5.16186 62.59987,-40.91947 63.04687,-104.57031 3.5052,-16.20952 7.8577,-30.99989 9.0918,-51.00391 47.7384,-69.2398 2.98687,-141.82914 -39.26563,-160.96679 l -6.11718,-8.35352 c -7.4848,-63.12548 -38.97062,-86.13958 -74.81055,-101.875 9.31099,-5.82908 17.46595,-14.97023 22.55664,-30.0957 7.4383,-7.86412 15.42754,-15.48595 10.96094,-28.39649 12.8546,-13.395046 11.62901,-22.556723 8.47461,-31.123043 2.3332,-5.17163 11.05005,-21.022731 1.59765,-33.238281 4.2651,-9.87196 4.29671,-19.187368 -3.71289,-27.435547 2.5669,-13.8869263 0.14742,-22.568814 -7.45898,-27.261719 2.1598,-18.160663 -6.0183,-21.849463 -14.0957,-25.707031 -0.63033,-11.685846 -7.39719,-20.16707 -17.28125,-20.417969 z"
         transform="translate(446.55591,53.931873)"
         id="path4-3"
         inkscape:connector-curvature="0" />
    </g>
    <path
       style="display:inline;opacity:1;fill:#ffffff;fill-opacity:1;fill-rule:nonzero;stroke:#ffffff;stroke-width:40;stroke-miterlimit:4;stroke-dasharray:none;stroke-opacity:1"
       d="m 1506.1752,664.76308 a 135.54547,156.5324 42.084612 0 0 -71.1372,20.89522 135.54547,156.5324 42.084612 0 0 -77.7116,202.33415 135.54547,156.5324 42.084612 0 0 190.2982,50.5841 135.54547,156.5324 42.084612 0 0 77.7116,-202.33411 135.54547,156.5324 42.084612 0 0 -119.161,-71.47936 z m -6.779,100.88043 a 40.706461,47.009168 42.084612 0 1 35.7853,21.46612 40.706461,47.009168 42.084612 0 1 -23.3378,60.76429 40.706461,47.009168 42.084612 0 1 -57.1481,-15.19108 40.706461,47.009168 42.084612 0 1 23.3379,-60.76429 40.706461,47.009168 42.084612 0 1 21.3627,-6.27504 z"
       id="path8127-3"
       inkscape:connector-curvature="0" />
    <path
       style="display:inline;opacity:1;fill:#ffffff;fill-opacity:1;fill-rule:nonzero;stroke:#ffffff;stroke-width:40;stroke-miterlimit:4;stroke-dasharray:none;stroke-opacity:1"
       d="m 804.54572,668.64658 a 135.54547,156.5324 42.084612 0 0 -71.1372,20.89522 135.54547,156.5324 42.084612 0 0 -77.7116,202.33415 135.54547,156.5324 42.084612 0 0 190.2982,50.5841 135.54547,156.5324 42.084612 0 0 77.7116,-202.33411 135.54547,156.5324 42.084612 0 0 -119.161,-71.47936 z m -6.779,100.88043 a 40.706461,47.009168 42.084612 0 1 35.7853,21.46612 40.706461,47.009168 42.084612 0 1 -23.3378,60.76429 40.706461,47.009168 42.084612 0 1 -57.1481,-15.19108 40.706461,47.009168 42.084612 0 1 23.3379,-60.76429 40.706461,47.009168 42.084612 0 1 21.3627,-6.27504 z"
       id="path8127-3-5"
       inkscape:connector-curvature="0" />
  </g>
  <g
     inkscape:groupmode="layer"
     id="layer2"
     inkscape:label="logo"
     style="display:inline">
    <path
       inkscape:connector-curvature="0"
       d="m 968.52186,166.88928 c -3.57922,0.54877 -7.28698,2.34691 -11.25352,6.34359 -11.25222,-2.83762 -21.85073,-3.00929 -30.14638,6.56529 -14.61492,-0.11587 -18.82784,4.30703 -21.82528,9.23578 -3.1672,0.31912 -24.0397,-0.37038 -31.72735,14.78526 -23.94735,0.0804 -29.37755,17.6666 -19.03139,32.19138 -3.91291,8.05068 -8.01117,16.03256 4.99567,28.88931 -3.02402,8.41048 0.49465,16.70665 11.15653,25.96731 -1.12368,11.44218 4.70695,18.70923 14.19475,23.77167 0.22043,15.44406 16.91468,22.40799 21.96237,24.99843 2.87162,8.66522 7.6235,16.5932 26.02441,19.05791 4.55275,12.8804 15.55072,13.86181 26.26891,15.3764 -31.88159,24.11806 -58.10965,53.93842 -50.07517,118.29145 l -3.93429,9.57674 c -36.42859,28.71382 -62.46286,109.91802 0.49003,165.68573 5.9963,19.12401 13.76952,32.43798 21.06047,47.33351 15.70152,61.68542 71.96798,84.61648 86.28888,86.39518 22.2544,13.03489 45.7375,25.11482 76.3451,31.85328 31.1444,25.17106 62.4457,32.39921 92.5847,28.71201 0.4418,-0.0541 0.8925,-0.1036 1.3339,-0.16235 30.1435,-3.64969 58.7972,-18.17489 82.9947,-50.08155 28.0978,-13.88343 47.9978,-31.24346 66.4759,-49.23585 13.4762,-5.16186 62.5997,-40.91978 63.0467,-104.57062 3.5052,-16.20952 7.8579,-30.99932 9.092,-51.00334 47.7384,-69.2398 2.9861,-141.82866 -39.2664,-160.96631 l -6.1165,-8.35345 c -7.6361,-64.40153 -40.2513,-87.06015 -76.9872,-102.82686 -66.5788,-63.4055 -108.704,-73.33445 -176.1687,-99.3498 -6.3881,-15.1411 -22.7026,-44.11483 -49.9442,-56.0011 l -9.3768,1.33011 c -9.0821,-7.20068 -15.1484,-14.33161 -31.5658,-8.71891 -7.9351,-1.89302 -12.3101,-8.38065 -27.15521,-1.44855 -6.57687,-1.23293 -12.90777,-4.6893 -19.74083,-3.64165 z"
       style="fill:#000000"
       id="path4"
       sodipodi:nodetypes="scccccccccccccccccccccccccccccccs" />
    <path
       inkscape:connector-curvature="0"
       d="m 925.93435,238.96187 c 71.68232,26.5655 114.31585,49.92334 138.71365,71.26753 -5.6348,45.43115 -62.7804,54.42829 -83.91533,55.74533 4.0533,-2.52293 7.34677,-5.35462 8.17003,-9.19014 -5.72109,-3.10132 -23.98424,2.51897 -37.91006,-3.21754 4.88087,-1.64674 7.1,-2.94237 8.9924,-6.92256 -12.79288,-2.4289 -26.46985,-4.19917 -35.06333,-9.75638 4.21651,-0.4604 8.25571,-0.049 13.29022,-4.53159 -11.75377,-4.60184 -24.09765,-7.87982 -34.34839,-15.85364 5.68614,-0.83372 11.84513,-1.49887 13.3776,-3.81371 -10.85717,-5.02576 -20.2217,-10.94491 -28.198,-17.69496 8.09834,-0.008 11.3678,-1.24779 13.12788,-2.87268 -8.58282,-6.88769 -19.04463,-12.31246 -24.82231,-21.38412 6.17445,1.32118 11.69124,1.44313 15.2331,-2.03613 -3.30526,-5.53467 -14.83629,-7.63305 -22.89655,-20.52574 6.31195,-0.15434 13.0204,-0.20347 14.17813,-1.7256 -4.33724,-11.44841 -10.11297,-17.47622 -15.82224,-23.75441 13.32739,-1.82326 33.58628,-4.03501 32.53248,-5.05226 l -9.28225,-7.43031 c 12.61403,-5.09858 26.45459,-2.64739 36.51033,-0.80105 3.93201,-3.96176 -1.02303,-7.76325 -6.86943,-11.54867 11.26327,0.13081 21.58834,1.45984 31.06837,3.8681 4.30517,-4.95577 -4.20374,-8.35195 -8.59387,-12.24942 17.51838,1.16457 25.32818,4.84609 33.09389,8.53904 4.62053,-5.65042 -0.82938,-9.3113 -4.89054,-13.24654 13.49238,3.21046 20.89373,8.57404 28.63667,13.81688 1.9838,-3.49232 5.3548,-6.2854 -10e-4,-13.47737 9.8096,4.16809 17.4715,9.55418 23.4273,15.90792 5.232,-4.30156 2.3383,-8.96117 1.8154,-13.51632 10.4695,6.58989 17.5188,14.10067 25.8991,21.25306 1.3586,-1.26685 2.2159,-5.10683 2.6596,-11.06927 25.4112,19.28295 64.2841,70.91106 20.3785,98.60106 -43.6069,-27.88294 -93.8473,-45.88528 -148.49119,-57.32851 z"
       style="fill:#75a928"
       id="path6" />
    <path
       inkscape:connector-curvature="0"
       d="M 1241.2119,656.233 A 75.0518,81.390151 83.060733 1 1 1079.624,675.89965 75.0518,81.390151 83.060733 0 1 1241.2119,656.233 Z"
       style="fill:#bc1142"
       id="path10" />
    <path
       inkscape:connector-curvature="0"
       d="m 1087.7577,458.92897 a 72.998839,86.129676 27.094956 1 1 -76.9092,154.13329 72.998839,86.129676 27.094956 0 1 76.9092,-154.13329 z"
       style="fill:#bc1142"
       id="path12" />
    <path
       inkscape:connector-curvature="0"
       d="M 1177.6398,443.96002 A 86.129678,72.998844 49.026509 1 0 1289.2749,575.14581 86.129678,72.998844 49.026509 1 0 1177.6398,443.96002 Z"
       style="fill:#bc1142"
       id="path14" />
    <path
       inkscape:connector-curvature="0"
       d="m 924.81315,515.15271 c 34.96867,-14.08492 30.40103,148.04802 -0.59697,138.56289 -35.51501,-22.08362 -55.20868,-97.01593 0.59697,-138.56289 z"
       style="fill:#bc1142"
       id="path16" />
    <path
       inkscape:connector-curvature="0"
       d="m 1342.2573,462.33134 c -37.3263,-5.28598 5.9979,151.0181 33.8159,134.37456 29.1811,-29.95771 30.3262,-107.42629 -33.8159,-134.37456 z"
       style="fill:#bc1142"
       id="path18" />
    <path
       inkscape:connector-curvature="0"
       d="m 1205.0271,358.71772 c 61.0927,-18.12394 117.5012,12.61856 123.644,80.50939 1.1041,26.1795 -146.152,-73.85239 -123.644,-80.50939 z"
       style="fill:#bc1142"
       id="path20" />
    <path
       inkscape:connector-curvature="0"
       d="M 1032.4453,377.70767 C 968.78888,374.76679 921.40117,418.1422 931.72228,485.52449 936.92995,511.20455 1055.893,378.77147 1032.4453,377.70767 Z"
       style="fill:#bc1142"
       id="path22" />
    <path
       inkscape:connector-curvature="0"
       d="m 1120.123,351.02149 c -37.3457,3.56263 -69.5942,36.50981 -67.6608,53.10806 2.3492,20.16816 34.3987,37.20927 78.3248,32.39466 44.8316,-5.1308 71.3637,-25.44887 68.9766,-46.26656 -2.7046,-23.58598 -46.6507,-43.62077 -79.6406,-39.23616 z"
       style="fill:#bc1142"
       id="path24" />
    <path
       inkscape:connector-curvature="0"
       d="m 1172.6999,764.05595 c 32.2855,-5.36707 77.2824,1.20373 79.2843,16.94116 2.4,15.22679 -33.4319,54.65002 -72.2639,58.69835 -39.9204,6.61545 -83.4835,-23.19929 -84.4275,-35.25655 -2.741,-17.51305 45.0538,-37.26421 77.4071,-40.38296 z"
       style="fill:#bc1142"
       id="path26" />
    <path
       inkscape:connector-curvature="0"
       d="m 1041.4555,685.32272 c 26.497,25.02778 42.9839,72.65804 25.4539,89.42331 -16.9049,13.22714 -61.7628,14.08682 -98.76036,-27.31974 -25.85858,-35.37666 -27.82291,-74.3397 -14.29251,-87.50344 20.64657,-16.29814 57.33447,-2.14367 87.59897,25.39987 z"
       style="fill:#bc1142"
       id="path28" />
    <path
       inkscape:connector-curvature="0"
       d="m 1275.5282,647.8765 c -21.438,32.32854 -28.8598,87.43676 -8.5258,102.42314 19.0662,11.24243 65.6543,3.67638 94.3955,-48.51574 21.1884,-35.28309 6.2243,-88.07945 -9.8582,-100.62114 -23.3126,-13.88729 -51.3327,10.92681 -76.0115,46.71374 z"
       style="fill:#bc1142"
       id="path30" />
    <path
       style="opacity:1;fill:#000000;fill-opacity:1;fill-rule:nonzero;stroke:#000000;stroke-width:1.50643075;stroke-miterlimit:4;stroke-dasharray:none;stroke-opacity:1"
       d="m 1506.1752,664.76308 a 135.54547,156.5324 42.084612 0 0 -71.1372,20.89522 135.54547,156.5324 42.084612 0 0 -77.7116,202.33415 135.54547,156.5324 42.084612 0 0 190.2982,50.5841 135.54547,156.5324 42.084612 0 0 77.7116,-202.33411 135.54547,156.5324 42.084612 0 0 -119.161,-71.47936 z m -6.779,100.88043 a 40.706461,47.009168 42.084612 0 1 35.7853,21.46612 40.706461,47.009168 42.084612 0 1 -23.3378,60.76429 40.706461,47.009168 42.084612 0 1 -57.1481,-15.19108 40.706461,47.009168 42.084612 0 1 23.3379,-60.76429 40.706461,47.009168 42.084612 0 1 21.3627,-6.27504 z"
       id="path8127"
       inkscape:connector-curvature="0" />
    <path
       style="opacity:1;fill:#000000;fill-opacity:1;fill-rule:nonzero;stroke:#000000;stroke-width:1.50643075;stroke-miterlimit:4;stroke-dasharray:none;stroke-opacity:1"
       d="m 804.56637,666.85212 a 135.54547,156.5324 42.084612 0 0 -71.13724,20.89522 135.54547,156.5324 42.084612 0 0 -77.71156,202.33421 135.54547,156.5324 42.084612 0 0 190.29816,50.5841 135.54547,156.5324 42.084612 0 0 77.71156,-202.33417 135.54547,156.5324 42.084612 0 0 -119.16092,-71.47936 z m -6.77901,100.88044 a 40.706461,47.009168 42.084612 0 1 35.78529,21.46612 40.706461,47.009168 42.084612 0 1 -23.33786,60.76429 40.706461,47.009168 42.084612 0 1 -57.14803,-15.19108 40.706461,47.009168 42.084612 0 1 23.33786,-60.76429 40.706461,47.009168 42.084612 0 1 21.36274,-6.27504 z"
       id="path8127-7"
       inkscape:connector-curvature="0" />
    <g
       id="g8109"
       transform="matrix(0.90871285,-0.41742179,0.41742179,0.90871285,937.98502,89.822587)">
      <path
         sodipodi:nodetypes="cccccccccccccccccc"
         inkscape:connector-curvature="0"
         d="m 144.46845,353.76901 c 21.48713,3.55263 71.927,27.27542 100.98797,-3.5922 10.042,-4.04129 20.48349,-7.63207 21.81378,-21.22849 17.27252,-6.80647 19.98404,-15.64282 20.69335,-24.74386 4.27898,-3.72559 18.81546,-14.49057 15.32497,-29.53664 7.99653,-7.19043 11.91383,-15.64389 8.07839,-26.48249 8.12932,-11.54773 9.5553,-20.44571 4.60219,-27.88529 9.54325,-15.6013 3.65006,-22.36713 -2.07969,-29.24421 6.56014,-16.58242 -2.92982,-32.35269 -26.19736,-26.68665 -11.09852,-12.86919 -31.19629,-7.19326 -34.34757,-6.74337 -4.09216,-4.06588 -9.24299,-7.34913 -23.40346,-3.73104 -10.35007,-7.30523 -20.59799,-4.59637 -30.84107,0.85742 -13.99099,-8.51947 -21.45895,0.58359 -30.73762,4.81137 -16.07445,-3.16892 -18.76562,4.17873 -26.01496,7.91982 -17.2844,-1.51089 -21.46318,6.86696 -28.55299,16.03591 l -9.42205,0.95786 c -23.599434,18.07675 -32.516464,50.1212 -35.084554,66.34985 6.36277,57.59009 39.706734,85.49112 75.180674,102.94201 z"
         style="fill:#000000"
         id="path8095" />
      <path
         inkscape:connector-curvature="0"
         d="m 246.80945,210.8609 c -63.21755,42.98399 -99.00376,75.88621 -117.56953,102.45943 16.36757,42.75328 74.00301,37.78055 94.83682,33.98964 -4.54013,-1.47703 -8.41667,-3.43607 -10.1359,-6.96215 4.81017,-4.38307 23.88827,-3.30753 36.03155,-12.21688 -5.13337,-0.42793 -7.59849,-1.15344 -10.39035,-4.56352 11.8368,-5.42654 24.68987,-10.42575 31.69951,-17.88199 -4.20387,0.56443 -8.02646,1.93269 -13.98921,-1.21145 10.30682,-7.28681 21.50406,-13.42995 29.54291,-23.62976 -5.72011,0.55452 -11.85885,1.3861 -13.90183,-0.49357 9.33471,-7.48329 17.00606,-15.47586 23.13041,-23.94208 -7.86383,1.93478 -11.33523,1.51537 -13.43368,0.3601 6.68014,-8.74533 15.53532,-16.52115 18.96837,-26.71384 -5.6773,2.76365 -11.00378,4.20532 -15.2768,1.6772 1.88121,-6.16591 12.57228,-10.96892 17.30473,-25.41859 -6.1647,1.36418 -12.68909,2.9256 -14.17813,1.72561 1.46456,-12.15455 5.62581,-19.39177 9.6625,-26.85613 -13.37565,1.42673 -33.57363,4.13894 -32.7946,2.89862 l 7.229,-9.43987 c -13.46875,-1.92408 -26.3173,3.7754 -35.63661,7.97985 -4.7675,-2.90295 -0.86896,-7.782 3.89878,-12.85925 -10.90308,2.82865 -20.60793,6.5955 -29.23355,11.20738 -5.36821,-3.77844 2.07768,-9.11646 5.40478,-13.95319 -16.72762,5.33261 -23.42636,10.77995 -30.07955,16.22781 -5.84097,-4.37717 -1.42828,-9.23841 1.57039,-14.0329 -12.32841,6.35307 -18.22715,13.33539 -24.48646,20.28242 -2.76356,-2.91451 -6.7061,-4.81748 -3.23162,-13.08419 -8.52344,6.39938 -14.66979,13.46607 -18.92763,21.06289 -6.11103,-2.92102 -4.41954,-8.13868 -5.00447,-12.68629 -8.58319,8.90878 -13.62512,17.89116 -20.04519,26.8449 -1.6228,-0.904 -3.37611,-4.42625 -5.23708,-10.10819 -20.044104,24.81527 -45.398364,84.26037 3.86728,100.61063 35.64578,-37.52869 80.10133,-67.05636 130.40516,-91.27264 z"
         style="fill:#75a928"
         id="path8099" />
    </g>
  </g>
  <g
     inkscape:groupmode="layer"
     id="layer4"
     inkscape:label="moving lines"
     style="display:inline">
    <path
       style="display:inline;opacity:1;fill:#888888;fill-opacity:1;fill-rule:evenodd;stroke:#888888;stroke-width:3;stroke-linejoin:round;stroke-miterlimit:4.85714293;stroke-dasharray:none;stroke-opacity:1"
       d="m 596.8014,114.64122 562.3972,0 -12.4673,6.71756 -549.92988,-5.39156 z"
       id="path8120-3"
       inkscape:connector-curvature="0"
       sodipodi:nodetypes="ccccc" />
    <path
       style="display:inline;opacity:1;fill:#888888;fill-opacity:1;fill-rule:evenodd;stroke:#888888;stroke-width:3;stroke-linejoin:round;stroke-miterlimit:4.85714293;stroke-dasharray:none;stroke-opacity:1"
       d="m 274.80141,176.64122 562.39718,0 -12.4673,6.71756 -549.92987,-5.39156 z"
       id="path8120-3-6"
       inkscape:connector-curvature="0"
       sodipodi:nodetypes="ccccc" />
    <path
       style="display:inline;opacity:1;fill:#888888;fill-opacity:1;fill-rule:evenodd;stroke:#888888;stroke-width:3;stroke-linecap:butt;stroke-linejoin:round;stroke-miterlimit:4.85714293;stroke-dasharray:none;stroke-opacity:1"
       d="m 258.80141,276.64122 562.39718,0 -12.4673,6.71756 -549.92987,-5.39156 z"
       id="path8120-3-2"
       inkscape:connector-curvature="0"
       sodipodi:nodetypes="ccccc" />
    <path
       style="display:inline;opacity:1;fill:#888888;fill-opacity:1;fill-rule:evenodd;stroke:#888888;stroke-width:3;stroke-linejoin:round;stroke-miterlimit:4.85714293;stroke-dasharray:none;stroke-opacity:1"
       d="m 312.80141,416.64122 562.39718,0 -12.4673,6.71756 -549.92987,-5.39156 z"
       id="path8120-3-1"
       inkscape:connector-curvature="0"
       sodipodi:nodetypes="ccccc" />
    <path
       style="display:inline;opacity:1;fill:#888888;fill-opacity:1;fill-rule:evenodd;stroke:#888888;stroke-width:3;stroke-linejoin:round;stroke-miterlimit:4.85714293;stroke-dasharray:none;stroke-opacity:1"
       d="m 276.80141,520.64122 562.39718,0 -12.4673,6.71756 -549.92987,-5.39156 z"
       id="path8120-3-27"
       inkscape:connector-curvature="0"
       sodipodi:nodetypes="ccccc" />
    <path
       style="display:inline;opacity:1;fill:#888888;fill-opacity:1;fill-rule:evenodd;stroke:#888888;stroke-width:3;stroke-linejoin:round;stroke-miterlimit:4.85714293;stroke-dasharray:none;stroke-opacity:1"
       d="m 96.80141,686.64122 562.39718,0 -12.4673,6.71756 -549.92987,-5.39156 z"
       id="path8120-3-0"
       inkscape:connector-curvature="0"
       sodipodi:nodetypes="ccccc" />
    <path
       style="display:inline;opacity:1;fill:#888888;fill-opacity:1;fill-rule:evenodd;stroke:#888888;stroke-width:3;stroke-linejoin:round;stroke-miterlimit:4.85714293;stroke-dasharray:none;stroke-opacity:1"
       d="m 46.80141,800.64122 562.39718,0 -12.4673,6.71756 -549.92987,-5.39156 z"
       id="path8120-3-93"
       inkscape:connector-curvature="0"
       sodipodi:nodetypes="ccccc" />
  </g>
</svg>
